<mxfile host="app.diagrams.net" modified="2023-10-16T20:21:50.357Z" agent="Mozilla/5.0 (Macintosh; Intel Mac OS X 10_15_7) AppleWebKit/605.1.15 (KHTML, like Gecko) Version/17.0 Safari/605.1.15" etag="zyWcqRFE71iEOXR142DB" version="22.0.4" type="device">
  <diagram name="Page-1" id="vn7L7fNvy0I9KR_EARMm">
    <mxGraphModel dx="2236" dy="1733" grid="1" gridSize="10" guides="1" tooltips="1" connect="1" arrows="1" fold="1" page="1" pageScale="1" pageWidth="850" pageHeight="1100" math="0" shadow="0">
      <root>
        <mxCell id="0" />
        <mxCell id="1" parent="0" />
        <mxCell id="qK6D9zN646q1rQMHQzwA-1" value="" style="edgeStyle=orthogonalEdgeStyle;rounded=0;orthogonalLoop=1;jettySize=auto;html=1;" edge="1" parent="1" source="qK6D9zN646q1rQMHQzwA-2" target="qK6D9zN646q1rQMHQzwA-6">
          <mxGeometry relative="1" as="geometry" />
        </mxCell>
        <mxCell id="qK6D9zN646q1rQMHQzwA-2" value="Login" style="rounded=1;whiteSpace=wrap;html=1;" vertex="1" parent="1">
          <mxGeometry x="-65" y="50" width="120" height="60" as="geometry" />
        </mxCell>
        <mxCell id="qK6D9zN646q1rQMHQzwA-3" style="edgeStyle=orthogonalEdgeStyle;rounded=0;orthogonalLoop=1;jettySize=auto;html=1;" edge="1" parent="1" source="qK6D9zN646q1rQMHQzwA-4" target="qK6D9zN646q1rQMHQzwA-2">
          <mxGeometry relative="1" as="geometry" />
        </mxCell>
        <mxCell id="qK6D9zN646q1rQMHQzwA-4" value="" style="ellipse;whiteSpace=wrap;html=1;aspect=fixed;strokeColor=#000000;fillColor=#000000;" vertex="1" parent="1">
          <mxGeometry x="-25" y="-40" width="40" height="40" as="geometry" />
        </mxCell>
        <mxCell id="qK6D9zN646q1rQMHQzwA-5" style="edgeStyle=orthogonalEdgeStyle;rounded=0;orthogonalLoop=1;jettySize=auto;html=1;entryX=0.5;entryY=0;entryDx=0;entryDy=0;" edge="1" parent="1" source="qK6D9zN646q1rQMHQzwA-6" target="qK6D9zN646q1rQMHQzwA-9">
          <mxGeometry relative="1" as="geometry" />
        </mxCell>
        <mxCell id="qK6D9zN646q1rQMHQzwA-6" value="Authentication" style="rounded=1;whiteSpace=wrap;html=1;" vertex="1" parent="1">
          <mxGeometry x="-65" y="160" width="120" height="60" as="geometry" />
        </mxCell>
        <mxCell id="qK6D9zN646q1rQMHQzwA-7" style="edgeStyle=orthogonalEdgeStyle;rounded=0;orthogonalLoop=1;jettySize=auto;html=1;exitX=1;exitY=0.5;exitDx=0;exitDy=0;" edge="1" parent="1" source="qK6D9zN646q1rQMHQzwA-9" target="qK6D9zN646q1rQMHQzwA-2">
          <mxGeometry relative="1" as="geometry">
            <mxPoint x="48" y="320" as="sourcePoint" />
            <mxPoint x="107.5" y="130" as="targetPoint" />
            <Array as="points">
              <mxPoint x="130" y="310" />
              <mxPoint x="130" y="80" />
            </Array>
          </mxGeometry>
        </mxCell>
        <mxCell id="qK6D9zN646q1rQMHQzwA-8" style="edgeStyle=orthogonalEdgeStyle;rounded=0;orthogonalLoop=1;jettySize=auto;html=1;" edge="1" parent="1" source="qK6D9zN646q1rQMHQzwA-9">
          <mxGeometry relative="1" as="geometry">
            <mxPoint x="-4" y="420" as="targetPoint" />
          </mxGeometry>
        </mxCell>
        <mxCell id="qK6D9zN646q1rQMHQzwA-9" value="Check" style="rhombus;whiteSpace=wrap;html=1;rounded=1;" vertex="1" parent="1">
          <mxGeometry x="-57" y="270" width="105" height="80" as="geometry" />
        </mxCell>
        <mxCell id="qK6D9zN646q1rQMHQzwA-10" value="Invalid" style="text;html=1;strokeColor=none;fillColor=none;align=center;verticalAlign=middle;whiteSpace=wrap;rounded=0;" vertex="1" parent="1">
          <mxGeometry x="70" y="280" width="60" height="30" as="geometry" />
        </mxCell>
        <mxCell id="qK6D9zN646q1rQMHQzwA-11" value="Activity Diagram for invigilator" style="text;html=1;strokeColor=none;fillColor=none;align=center;verticalAlign=middle;whiteSpace=wrap;rounded=0;fontStyle=1;fontSize=20;" vertex="1" parent="1">
          <mxGeometry x="-140" y="-100" width="297.5" height="10" as="geometry" />
        </mxCell>
        <mxCell id="qK6D9zN646q1rQMHQzwA-12" value="" style="edgeStyle=orthogonalEdgeStyle;rounded=0;orthogonalLoop=1;jettySize=auto;html=1;" edge="1" parent="1" source="qK6D9zN646q1rQMHQzwA-13" target="qK6D9zN646q1rQMHQzwA-16">
          <mxGeometry relative="1" as="geometry" />
        </mxCell>
        <mxCell id="qK6D9zN646q1rQMHQzwA-13" value="Scan the number plate" style="rounded=1;whiteSpace=wrap;html=1;" vertex="1" parent="1">
          <mxGeometry x="-64.5" y="490" width="120" height="60" as="geometry" />
        </mxCell>
        <mxCell id="qK6D9zN646q1rQMHQzwA-14" value="" style="edgeStyle=orthogonalEdgeStyle;rounded=0;orthogonalLoop=1;jettySize=auto;html=1;" edge="1" parent="1" source="qK6D9zN646q1rQMHQzwA-16" target="qK6D9zN646q1rQMHQzwA-18">
          <mxGeometry relative="1" as="geometry" />
        </mxCell>
        <mxCell id="qK6D9zN646q1rQMHQzwA-15" style="edgeStyle=orthogonalEdgeStyle;rounded=0;orthogonalLoop=1;jettySize=auto;html=1;entryX=1;entryY=0.5;entryDx=0;entryDy=0;exitX=1;exitY=0.5;exitDx=0;exitDy=0;" edge="1" parent="1" source="qK6D9zN646q1rQMHQzwA-16" target="qK6D9zN646q1rQMHQzwA-13">
          <mxGeometry relative="1" as="geometry" />
        </mxCell>
        <mxCell id="qK6D9zN646q1rQMHQzwA-16" value="Verify user" style="rhombus;whiteSpace=wrap;html=1;rounded=1;" vertex="1" parent="1">
          <mxGeometry x="-45" y="590" width="80" height="80" as="geometry" />
        </mxCell>
        <mxCell id="qK6D9zN646q1rQMHQzwA-17" value="" style="edgeStyle=orthogonalEdgeStyle;rounded=0;orthogonalLoop=1;jettySize=auto;html=1;" edge="1" parent="1" source="qK6D9zN646q1rQMHQzwA-18" target="qK6D9zN646q1rQMHQzwA-20">
          <mxGeometry relative="1" as="geometry" />
        </mxCell>
        <mxCell id="qK6D9zN646q1rQMHQzwA-18" value="Display user details" style="whiteSpace=wrap;html=1;rounded=1;" vertex="1" parent="1">
          <mxGeometry x="-64.5" y="710" width="120" height="60" as="geometry" />
        </mxCell>
        <mxCell id="qK6D9zN646q1rQMHQzwA-19" style="edgeStyle=orthogonalEdgeStyle;rounded=0;orthogonalLoop=1;jettySize=auto;html=1;" edge="1" parent="1" source="qK6D9zN646q1rQMHQzwA-20">
          <mxGeometry relative="1" as="geometry">
            <mxPoint x="-4.5" y="930" as="targetPoint" />
          </mxGeometry>
        </mxCell>
        <mxCell id="qK6D9zN646q1rQMHQzwA-20" value="Display user details" style="whiteSpace=wrap;html=1;rounded=1;" vertex="1" parent="1">
          <mxGeometry x="-64.5" y="810" width="120" height="60" as="geometry" />
        </mxCell>
        <mxCell id="qK6D9zN646q1rQMHQzwA-21" value="" style="endArrow=none;html=1;rounded=0;jumpSize=12;endSize=18;strokeWidth=4;" edge="1" parent="1">
          <mxGeometry width="50" height="50" relative="1" as="geometry">
            <mxPoint x="-289.5" y="420" as="sourcePoint" />
            <mxPoint x="281" y="420" as="targetPoint" />
          </mxGeometry>
        </mxCell>
        <mxCell id="qK6D9zN646q1rQMHQzwA-22" style="edgeStyle=orthogonalEdgeStyle;rounded=0;orthogonalLoop=1;jettySize=auto;html=1;entryX=1;entryY=0.5;entryDx=0;entryDy=0;exitX=0.5;exitY=1;exitDx=0;exitDy=0;" edge="1" parent="1" source="qK6D9zN646q1rQMHQzwA-23" target="qK6D9zN646q1rQMHQzwA-20">
          <mxGeometry relative="1" as="geometry" />
        </mxCell>
        <mxCell id="qK6D9zN646q1rQMHQzwA-23" value="Enter the number manually" style="rounded=1;whiteSpace=wrap;html=1;" vertex="1" parent="1">
          <mxGeometry x="115.5" y="490" width="120" height="60" as="geometry" />
        </mxCell>
        <mxCell id="qK6D9zN646q1rQMHQzwA-24" value="" style="edgeStyle=orthogonalEdgeStyle;rounded=0;orthogonalLoop=1;jettySize=auto;html=1;" edge="1" parent="1" source="qK6D9zN646q1rQMHQzwA-25" target="qK6D9zN646q1rQMHQzwA-27">
          <mxGeometry relative="1" as="geometry" />
        </mxCell>
        <mxCell id="qK6D9zN646q1rQMHQzwA-25" value="Profile management" style="rounded=1;whiteSpace=wrap;html=1;" vertex="1" parent="1">
          <mxGeometry x="-244.5" y="490" width="120" height="60" as="geometry" />
        </mxCell>
        <mxCell id="qK6D9zN646q1rQMHQzwA-26" style="edgeStyle=orthogonalEdgeStyle;rounded=0;orthogonalLoop=1;jettySize=auto;html=1;" edge="1" parent="1" source="qK6D9zN646q1rQMHQzwA-27">
          <mxGeometry relative="1" as="geometry">
            <mxPoint x="-184.5" y="920" as="targetPoint" />
          </mxGeometry>
        </mxCell>
        <mxCell id="qK6D9zN646q1rQMHQzwA-27" value="Add/edit/delete profile details" style="rounded=1;whiteSpace=wrap;html=1;" vertex="1" parent="1">
          <mxGeometry x="-244.5" y="590" width="120" height="60" as="geometry" />
        </mxCell>
        <mxCell id="qK6D9zN646q1rQMHQzwA-28" value="" style="endArrow=none;html=1;rounded=0;jumpSize=12;endSize=18;strokeWidth=4;" edge="1" parent="1">
          <mxGeometry width="50" height="50" relative="1" as="geometry">
            <mxPoint x="-289.5" y="930" as="sourcePoint" />
            <mxPoint x="281" y="930" as="targetPoint" />
          </mxGeometry>
        </mxCell>
        <mxCell id="qK6D9zN646q1rQMHQzwA-29" value="" style="edgeStyle=orthogonalEdgeStyle;rounded=0;orthogonalLoop=1;jettySize=auto;html=1;entryX=0.5;entryY=0;entryDx=0;entryDy=0;" edge="1" parent="1" source="qK6D9zN646q1rQMHQzwA-30" target="qK6D9zN646q1rQMHQzwA-31">
          <mxGeometry relative="1" as="geometry">
            <mxPoint x="-2" y="1110" as="targetPoint" />
          </mxGeometry>
        </mxCell>
        <mxCell id="qK6D9zN646q1rQMHQzwA-30" value="Logout" style="rounded=1;whiteSpace=wrap;html=1;" vertex="1" parent="1">
          <mxGeometry x="-62" y="1000" width="120" height="60" as="geometry" />
        </mxCell>
        <mxCell id="qK6D9zN646q1rQMHQzwA-31" value="" style="ellipse;whiteSpace=wrap;html=1;aspect=fixed;strokeColor=#000000;fillColor=#000000;" vertex="1" parent="1">
          <mxGeometry x="-22" y="1110" width="40" height="40" as="geometry" />
        </mxCell>
        <mxCell id="qK6D9zN646q1rQMHQzwA-32" value="" style="endArrow=classic;html=1;rounded=0;entryX=0.5;entryY=0;entryDx=0;entryDy=0;" edge="1" parent="1" target="qK6D9zN646q1rQMHQzwA-30">
          <mxGeometry width="50" height="50" relative="1" as="geometry">
            <mxPoint x="-2" y="930" as="sourcePoint" />
            <mxPoint x="-162" y="780" as="targetPoint" />
          </mxGeometry>
        </mxCell>
        <mxCell id="qK6D9zN646q1rQMHQzwA-33" value="" style="endArrow=classic;html=1;rounded=0;entryX=0.5;entryY=0;entryDx=0;entryDy=0;" edge="1" parent="1" target="qK6D9zN646q1rQMHQzwA-25">
          <mxGeometry width="50" height="50" relative="1" as="geometry">
            <mxPoint y="420" as="sourcePoint" />
            <mxPoint x="40" y="550" as="targetPoint" />
          </mxGeometry>
        </mxCell>
        <mxCell id="qK6D9zN646q1rQMHQzwA-34" value="" style="endArrow=classic;html=1;rounded=0;entryX=0.5;entryY=0;entryDx=0;entryDy=0;" edge="1" parent="1" target="qK6D9zN646q1rQMHQzwA-23">
          <mxGeometry width="50" height="50" relative="1" as="geometry">
            <mxPoint y="420" as="sourcePoint" />
            <mxPoint x="-174" y="500" as="targetPoint" />
          </mxGeometry>
        </mxCell>
        <mxCell id="qK6D9zN646q1rQMHQzwA-35" value="" style="endArrow=classic;html=1;rounded=0;entryX=0.5;entryY=0;entryDx=0;entryDy=0;" edge="1" parent="1" target="qK6D9zN646q1rQMHQzwA-13">
          <mxGeometry width="50" height="50" relative="1" as="geometry">
            <mxPoint x="-4" y="420" as="sourcePoint" />
            <mxPoint x="100" y="520" as="targetPoint" />
          </mxGeometry>
        </mxCell>
        <mxCell id="qK6D9zN646q1rQMHQzwA-36" value="Invalid" style="text;html=1;strokeColor=none;fillColor=none;align=center;verticalAlign=middle;whiteSpace=wrap;rounded=0;" vertex="1" parent="1">
          <mxGeometry x="20" y="570" width="60" height="30" as="geometry" />
        </mxCell>
      </root>
    </mxGraphModel>
  </diagram>
</mxfile>
